<?xml version="1.0" encoding="UTF-8"?>
<svg id="Livello_2" data-name="Livello 2" xmlns="http://www.w3.org/2000/svg" xmlns:xlink="http://www.w3.org/1999/xlink" viewBox="0 0 315.15 176.61">
  <defs>
    <style>
      .cls-1 {
        letter-spacing: .04em;
      }

      .cls-2 {
        letter-spacing: .06em;
      }

      .cls-3 {
        fill: #f5edce;
        font-family: Westmount-ExtraLight, Westmount;
        font-size: 17.37px;
        font-weight: 200;
      }

      .cls-4 {
        fill: url(#Sfumatura_senza_nome_14);
      }

      .cls-5 {
        fill: url(#Sfumatura_senza_nome_22);
      }

      .cls-6 {
        letter-spacing: .03em;
      }

      .cls-7 {
        letter-spacing: .06em;
      }

      .cls-8 {
        letter-spacing: .04em;
      }

      .cls-9 {
        letter-spacing: .05em;
      }
    </style>
    <linearGradient id="Sfumatura_senza_nome_14" data-name="Sfumatura senza nome 14" x1="37.85" y1="87.89" x2="321.54" y2="54.63" gradientUnits="userSpaceOnUse">
      <stop offset="0" stop-color="#f5edce"/>
      <stop offset="1" stop-color="#d3bf7f"/>
    </linearGradient>
    <linearGradient id="Sfumatura_senza_nome_22" data-name="Sfumatura senza nome 22" x1=".05" y1="47.46" x2="62.12" y2="40.18" gradientUnits="userSpaceOnUse">
      <stop offset="0" stop-color="#89c4e1"/>
      <stop offset="1" stop-color="#5096b2"/>
    </linearGradient>
  </defs>
  <g id="Livello_1-2" data-name="Livello 1">
    <g>
      <path class="cls-4" d="M190.58,142.48c-11.41,0-22.07-.04-32.73,.04-1.63,.01-2.32-.66-3.01-2.03-16.77-33.67-33.58-67.32-50.44-100.95-.8-1.61-.82-2.9-.09-4.52C109.44,23.56,114.47,12.07,119.79,0c23.63,47.57,47.04,94.68,70.79,142.48Zm-117.77-36.23c-8.13,13.26-16.85,25.63-28.57,36.15h60.71c-14.45-9.3-23.67-22.21-32.13-36.15Zm166.79,36.27c5.32-12.07,10.35-23.56,15.47-35.01,.73-1.62,.71-2.92-.09-4.52-16.86-33.63-33.67-67.28-50.44-100.95C203.86,.66,203.17-.01,201.54,0c-10.66,.07-21.32,.04-32.73,.04,23.75,47.79,47.16,94.91,70.79,142.48Zm46.98-106.24c8.13-13.26,16.85-25.63,28.57-36.15h-60.71c14.45,9.3,23.67,22.21,32.13,36.15Z"/>
      <path class="cls-5" d="M31.32,74.8c-4.9,0-5.2,.05-6.05-4.59-.56-3.07-2.71-3.77-4.88-4.77-.56-.26-1.1,0-1.61,.28-.82,.46-1.66,.9-2.49,1.35q-3.03,1.65-5.54-.92c-1.19-1.21-2.35-2.47-3.63-3.58-.9-.78-.9-1.47-.33-2.42,.78-1.28,1.41-2.66,2.22-3.93,.55-.87,.25-1.56,.04-2.45-.86-3.67-3.97-3.95-6.76-4.59-1.66-.38-2.45-.95-2.27-2.83,.21-2.18,.1-4.41,.03-6.61-.03-1.02,.34-1.49,1.3-1.69,1.1-.24,2.18-.57,3.28-.85,4.4-1.11,5.81-4.44,3.52-8.35q-1.95-3.34,.86-6.11c.93-.92,2-1.75,2.76-2.8,1.2-1.67,2.43-1.39,3.84-.43,.47,.32,1.02,.53,1.43,.9,2.4,2.16,4.66,.72,6.96-.2,.76-.31,.59-1.04,.81-1.59,.71-1.8,.46-4.4,1.99-5.32,1.39-.85,3.66-.27,5.55-.27,4.08-.01,4.32-.06,5.25,3.99,.67,2.93,2.64,3.85,5.01,4.62,.85,.27,1.39-.33,2.05-.68,1.35-.72,2.3-2.04,3.96-2.36,.85-.16,1.29,.04,1.8,.54,1.82,1.83,3.6,3.7,5.47,5.48,.69,.66,.73,1.22,.26,1.96-.5,.8-.89,1.68-1.44,2.43-1.34,1.82-1.67,3.53-.49,5.7,.68,1.25,1.39,1.95,2.67,2.3,1.63,.45,3.73,.55,4.7,1.63,1,1.12,.29,3.26,.3,4.95,.04,5.02,.09,5.34-4.65,6.46-2.91,.69-3.01,2.9-3.94,4.77-.14,.27,.19,.83,.39,1.2,.79,1.5,1.54,3.03,2.47,4.44,.51,.77,.57,1.11-.18,1.79-1.86,1.69-3.61,3.51-5.35,5.33-.75,.79-1.44,1.13-2.44,.45-.56-.39-1.29-.56-1.81-.99-2.04-1.69-4.05-1.87-6.33-.38-.95,.62-1.74,1.16-1.93,2.33-.05,.31-.14,.61-.23,.92q-1.42,4.9-6.57,4.9Zm.24-50.34c-11.07,.01-19.26,8.25-19.22,19.34,.04,10.47,8.61,18.84,19.27,18.81,10.61-.03,19.09-8.59,19.07-19.26-.01-10.5-8.52-18.9-19.13-18.89Zm13.85,18.12c-1.86-1.87-3.72-3.75-5.61-5.61-.61-.6-1.33-1.07-2.14-.32-.95,.87-.09,1.51,.41,2.06,1.18,1.3,2.42,2.55,3.7,3.76,1.11,1.06,1.12,1.93-.07,2.96-1.23,1.07-2.32,2.3-3.49,3.44-.64,.63-1.46,1.3-.61,2.2,.81,.86,1.61,.23,2.27-.42,1.83-1.81,3.66-3.62,5.47-5.45,.35-.36,.68-.75,.69-1.3,.06-.56-.25-.96-.61-1.32Zm-21.57,6.39c-1.07-1.07-2.14-2.13-3.2-3.2-1.84-1.85-1.84-1.99,.04-3.9,1.1-1.12,2.23-2.22,3.32-3.35,.59-.61,.85-1.33,.12-1.97-.67-.59-1.32-.19-1.83,.32-1.93,1.89-3.82,3.82-5.74,5.72-.68,.67-.93,1.46-.26,2.16,2.09,2.17,4.2,4.33,6.41,6.37,.83,.77,1.9,.27,1.94-.71-.01-.62-.4-1.03-.8-1.44Zm8.84-12.81c-1-.15-1.28,.66-1.48,1.38-1.1,3.98-2.14,7.98-3.24,11.96-.26,.94-.38,1.84,.78,2.11,1.11,.26,1.35-.76,1.56-1.5,.83-2.89,1.58-5.8,2.35-8.7,.34-1.27,.67-2.54,.93-3.53,.01-.98-.12-1.62-.9-1.74Z"/>
      <text class="cls-3" transform="translate(54.1 172.68)"><tspan class="cls-7" x="0" y="0">AL</tspan><tspan class="cls-8" x="25.29" y="0">E</tspan><tspan class="cls-6" x="37.21" y="0">S</tspan><tspan class="cls-9" x="49.96" y="0">SIO V</tspan><tspan class="cls-2" x="107.72" y="0">E</tspan><tspan class="cls-9" x="120.07" y="0">L</tspan><tspan class="cls-1" x="131.65" y="0">L</tspan><tspan class="cls-9" x="142.98" y="0">U</tspan><tspan class="cls-8" x="156.25" y="0">S</tspan><tspan class="cls-9" x="169.09" y="0">O</tspan></text>
    </g>
  </g>
</svg>